{
  "accessors": [
    {
      "bufferView": 2,
      "componentType": 5126,
      "count": 24,
      "max": [
        1.0,
        1.0,
        1.0
      ],
      "min": [
        -1.0,
        -1.0,
        -1.0
      ],
      "type": "VEC3"
    },
    {
      "bufferView": 2,
      "byteOffset": 288,
      "componentType": 5126,
      "count": 24,
      "max": [
        1.0,
        1.0,
        1.0
      ],
      "min": [
        -1.0,
        -1.0,
        -1.0
      ],
      "type": "VEC3"
    },
    {
      "bufferView": 1,
      "componentType": 5126,
      "count": 24,
      "max": [
        0.7499567270278931,
        0.9999133944511414
      ],
      "min": [
        8.658754813950509e-05,
        8.660554885864258e-05
      ],
      "type": "VEC2"
    },
    {
      "bufferView": 0,
      "componentType": 5125,
      "count": 36,
      "type": "SCALAR"
    },
    {
      "bufferView": 2,
      "byteOffset": 576,
      "componentType": 5126,
      "count": 65532,
      "max": [
        1.8544660806655884,
        1.1185636520385742,
        0.9935176372528076
      ],
      "min": [
        -0.19638490676879883,
        -1.1116256713867188,
        -1.3665664196014404
      ],
      "type": "VEC3"
    },
    {
      "bufferView": 2,
      "byteOffset": 786960,
      "componentType": 5126,
      "count": 65532,
      "max": [
        0.9994686841964722,
        0.9997921586036682,
        0.9999261498451233
      ],
      "min": [
        -0.999951958656311,
        -0.9999924898147583,
        -0.9999722838401794
      ],
      "type": "VEC3"
    },
    {
      "bufferView": 1,
      "byteOffset": 192,
      "componentType": 5126,
      "count": 65532,
      "max": [
        0.9997010231018066,
        0.9995229840278625
      ],
      "min": [
        0.00029799999902024865,
        0.0002970099449157715
      ],
      "type": "VEC2"
    },
    {
      "bufferView": 0,
      "byteOffset": 144,
      "componentType": 5125,
      "count": 209181,
      "type": "SCALAR"
    },
    {
      "bufferView": 2,
      "byteOffset": 1573344,
      "componentType": 5126,
      "count": 65534,
      "max": [
        1.8544660806655884,
        1.5105314254760742,
        0.6897045969963074
      ],
      "min": [
        -0.04449189454317093,
        -1.0776805877685547,
        -1.5462104082107544
      ],
      "type": "VEC3"
    },
    {
      "bufferView": 2,
      "byteOffset": 2359752,
      "componentType": 5126,
      "count": 65534,
      "max": [
        0.9999258518218994,
        0.9999765753746033,
        0.9999375939369202
      ],
      "min": [
        -0.9999393820762634,
        -0.9999858736991882,
        -0.9999722838401794
      ],
      "type": "VEC3"
    },
    {
      "bufferView": 1,
      "byteOffset": 524448,
      "componentType": 5126,
      "count": 65534,
      "max": [
        0.999688982963562,
        0.9994699954986572
      ],
      "min": [
        0.00029799999902024865,
        0.00029402971267700195
      ],
      "type": "VEC2"
    },
    {
      "bufferView": 0,
      "byteOffset": 836868,
      "componentType": 5125,
      "count": 143790,
      "type": "SCALAR"
    },
    {
      "bufferView": 2,
      "byteOffset": 3146160,
      "componentType": 5126,
      "count": 65532,
      "max": [
        1.8541960716247559,
        1.5085344314575195,
        1.2728575468063354
      ],
      "min": [
        -1.6697689294815063,
        -1.1294822692871094,
        -1.5444693565368652
      ],
      "type": "VEC3"
    },
    {
      "bufferView": 2,
      "byteOffset": 3932544,
      "componentType": 5126,
      "count": 65532,
      "max": [
        0.9999258518218994,
        0.9999765753746033,
        0.9999817609786987
      ],
      "min": [
        -0.9999945759773254,
        -0.9997950792312622,
        -0.999910831451416
      ],
      "type": "VEC3"
    },
    {
      "bufferView": 1,
      "byteOffset": 1048720,
      "componentType": 5126,
      "count": 65532,
      "max": [
        0.9997050166130066,
        0.9993640184402466
      ],
      "min": [
        0.00030899999546818435,
        0.0003039836883544922
      ],
      "type": "VEC2"
    },
    {
      "bufferView": 0,
      "byteOffset": 1412028,
      "componentType": 5125,
      "count": 190029,
      "type": "SCALAR"
    },
    {
      "bufferView": 2,
      "byteOffset": 4718928,
      "componentType": 5126,
      "count": 65532,
      "max": [
        0.05249810218811035,
        1.346419334411621,
        1.2729625701904297
      ],
      "min": [
        -1.6148219108581543,
        -1.1294822692871094,
        -1.3044683933258057
      ],
      "type": "VEC3"
    },
    {
      "bufferView": 2,
      "byteOffset": 5505312,
      "componentType": 5126,
      "count": 65532,
      "max": [
        0.999674379825592,
        0.9997007846832275,
        0.9995527267456055
      ],
      "min": [
        -0.9999945759773254,
        -0.9999980330467224,
        -0.999910831451416
      ],
      "type": "VEC3"
    },
    {
      "bufferView": 1,
      "byteOffset": 1572976,
      "componentType": 5126,
      "count": 65532,
      "max": [
        0.9997050166130066,
        0.999472975730896
      ],
      "min": [
        0.000307999987853691,
        0.0003160238265991211
      ],
      "type": "VEC2"
    },
    {
      "bufferView": 0,
      "byteOffset": 2172144,
      "componentType": 5125,
      "count": 113004,
      "type": "SCALAR"
    },
    {
      "bufferView": 2,
      "byteOffset": 6291696,
      "componentType": 5126,
      "count": 45880,
      "max": [
        -0.5755859017372131,
        0.3581552505493164,
        0.9829986095428467
      ],
      "min": [
        -1.6713348627090454,
        -1.0079212188720703,
        -0.11374437808990479
      ],
      "type": "VEC3"
    },
    {
      "bufferView": 2,
      "byteOffset": 6842256,
      "componentType": 5126,
      "count": 45880,
      "max": [
        0.9986628890037537,
        0.9996454119682312,
        0.9999817609786987
      ],
      "min": [
        -0.9999489188194275,
        -0.9994540810585022,
        -0.9998199939727783
      ],
      "type": "VEC3"
    },
    {
      "bufferView": 1,
      "byteOffset": 2097232,
      "componentType": 5126,
      "count": 45880,
      "max": [
        0.9997010231018066,
        0.9994789958000183
      ],
      "min": [
        0.0003220000071451068,
        0.0002970099449157715
      ],
      "type": "VEC2"
    },
    {
      "bufferView": 0,
      "byteOffset": 2624160,
      "componentType": 5125,
      "count": 75873,
      "type": "SCALAR"
    }
  ],
  "asset": {
    "extras": {
      "author": "ffish.asia / floraZia.com (https://sketchfab.com/ffishAsia-and-floraZia)",
      "license": "CC-BY-4.0 (http://creativecommons.org/licenses/by/4.0/)",
      "source": "https://sketchfab.com/3d-models/japanese-locust-patanga-japonica-916396edb2d347658ac3405e99786007",
      "title": "ツチイナゴ ♀ Japanese Locust, Patanga japonica"
    },
    "generator": "Sketchfab-11.90.0",
    "version": "2.0"
  },
  "bufferViews": [
    {
      "buffer": 0,
      "byteLength": 2927652,
      "name": "floatBufferViews",
      "target": 34963
    },
    {
      "buffer": 0,
      "byteLength": 2464272,
      "byteOffset": 2927652,
      "byteStride": 8,
      "name": "floatBufferViews",
      "target": 34962
    },
    {
      "buffer": 0,
      "byteLength": 7392816,
      "byteOffset": 5391924,
      "byteStride": 12,
      "name": "floatBufferViews",
      "target": 34962
    }
  ],
  "buffers": [
    {
      "byteLength": 12784740,
      "uri": "scene.bin"
    }
  ],
  "extensionsUsed": [
    "KHR_materials_unlit"
  ],
  "images": [
    {
      "uri": "textures/Material.001_baseColor.jpeg"
    },
    {
      "uri": "textures/Q11494-1all-1.001_baseColor.jpeg"
    }
  ],
  "materials": [
    {
      "doubleSided": true,
      "extensions": {
        "KHR_materials_unlit": {}
      },
      "name": "Material.001",
      "pbrMetallicRoughness": {
        "baseColorTexture": {
          "index": 0
        },
        "metallicFactor": 0.0
      }
    },
    {
      "doubleSided": true,
      "extensions": {
        "KHR_materials_unlit": {}
      },
      "name": "Q11494-1all-1.001",
      "pbrMetallicRoughness": {
        "baseColorTexture": {
          "index": 1
        },
        "metallicFactor": 0.0
      }
    }
  ],
  "meshes": [
    {
      "name": "Object_0",
      "primitives": [
        {
          "attributes": {
            "NORMAL": 1,
            "POSITION": 0,
            "TEXCOORD_0": 2
          },
          "indices": 3,
          "material": 0,
          "mode": 4
        }
      ]
    },
    {
      "name": "Object_1",
      "primitives": [
        {
          "attributes": {
            "NORMAL": 5,
            "POSITION": 4,
            "TEXCOORD_0": 6
          },
          "indices": 7,
          "material": 1,
          "mode": 4
        }
      ]
    },
    {
      "name": "Object_2",
      "primitives": [
        {
          "attributes": {
            "NORMAL": 9,
            "POSITION": 8,
            "TEXCOORD_0": 10
          },
          "indices": 11,
          "material": 1,
          "mode": 4
        }
      ]
    },
    {
      "name": "Object_3",
      "primitives": [
        {
          "attributes": {
            "NORMAL": 13,
            "POSITION": 12,
            "TEXCOORD_0": 14
          },
          "indices": 15,
          "material": 1,
          "mode": 4
        }
      ]
    },
    {
      "name": "Object_4",
      "primitives": [
        {
          "attributes": {
            "NORMAL": 17,
            "POSITION": 16,
            "TEXCOORD_0": 18
          },
          "indices": 19,
          "material": 1,
          "mode": 4
        }
      ]
    },
    {
      "name": "Object_5",
      "primitives": [
        {
          "attributes": {
            "NORMAL": 21,
            "POSITION": 20,
            "TEXCOORD_0": 22
          },
          "indices": 23,
          "material": 1,
          "mode": 4
        }
      ]
    }
  ],
  "nodes": [
    {
      "children": [
        1
      ],
      "matrix": [
        1.0,
        0.0,
        0.0,
        0.0,
        0.0,
        2.220446049250313e-16,
        -1.0,
        0.0,
        0.0,
        1.0,
        2.220446049250313e-16,
        0.0,
        0.0,
        0.0,
        0.0,
        1.0
      ],
      "name": "Sketchfab_model"
    },
    {
      "children": [
        2
      ],
      "name": "root"
    },
    {
      "children": [
        3,
        5
      ],
      "matrix": [
        1.0,
        0.0,
        0.0,
        0.0,
        0.0,
        2.220446049250313e-16,
        1.0,
        0.0,
        0.0,
        -1.0,
        2.220446049250313e-16,
        0.0,
        0.0,
        0.0,
        0.0,
        1.0
      ],
      "name": "GLTF_SceneRootNode"
    },
    {
      "children": [
        4
      ],
      "matrix": [
        -0.0005508633414607293,
        -0.2973936321139053,
        0.0010607393543153045,
        0.0,
        0.00137297104214889,
        -0.0010632731032756111,
        -0.2973909937562177,
        0.0,
        0.29739241414715023,
        -0.0005459570062513356,
        0.001374929580127982,
        0.0,
        2.9616055488586426,
        0.0098646879196167,
        0.01802748627960682,
        1.0
      ],
      "name": "Cube_2"
    },
    {
      "mesh": 0,
      "name": "Object_4"
    },
    {
      "children": [
        6,
        7,
        8,
        9,
        10
      ],
      "matrix": [
        -0.8152032522895349,
        0.5782352641451588,
        -0.03297933831269942,
        0.0,
        -0.3455746724652462,
        -0.439920528859602,
        0.8288836311801712,
        0.0,
        0.46478145746910215,
        0.6871054559431665,
        0.558448107890098,
        0.0,
        0.0,
        0.0,
        0.0,
        1.0
      ],
      "name": "Q11494-1all-1.001_5"
    },
    {
      "mesh": 1,
      "name": "Object_6"
    },
    {
      "mesh": 2,
      "name": "Object_7"
    },
    {
      "mesh": 3,
      "name": "Object_8"
    },
    {
      "mesh": 4,
      "name": "Object_9"
    },
    {
      "mesh": 5,
      "name": "Object_10"
    }
  ],
  "samplers": [
    {
      "magFilter": 9729,
      "minFilter": 9987,
      "wrapS": 10497,
      "wrapT": 10497
    }
  ],
  "scene": 0,
  "scenes": [
    {
      "name": "Sketchfab_Scene",
      "nodes": [
        0
      ]
    }
  ],
  "textures": [
    {
      "sampler": 0,
      "source": 0
    },
    {
      "sampler": 0,
      "source": 1
    }
  ]
}
